<?xml version="1.0" encoding="UTF-8"?>
<svg width="46px" height="136px" viewBox="0 0 46 136" version="1.1" xmlns="http://www.w3.org/2000/svg" xmlns:xlink="http://www.w3.org/1999/xlink">
    <!-- Generator: Sketch 57.1 (83088) - https://sketch.com -->
    <title>missile备份</title>
    <desc>Created with Sketch.</desc>
    <g id="页面-1" stroke="none" stroke-width="1" fill="none" fill-rule="evenodd">
        <g id="missile备份" transform="translate(1.000000, 2.000000)" stroke="#007AFF" stroke-width="2">
            <polygon id="路径-3" points="11.1033791 120.899514 1.687539e-14 131.694725 1.687539e-14 110.384628 11.1033791 99"></polygon>
            <polygon id="路径-3备份" transform="translate(37.551690, 115.347362) scale(-1, 1) translate(-37.551690, -115.347362) " points="43.1033791 120.899514 32 131.694725 32 110.384628 43.1033791 99"></polygon>
            <path d="M21.4618598,-4.26325641e-14 C14.4872866,7.6930858 11,15.63954 11,23.8393626 C11,32.0391851 11,67.9758839 11,131.649459 L21.4618598,131.649459 L31.9237197,131.649459 C31.9237197,67.9758839 31.9237197,32.0391851 31.9237197,23.8393626 C31.9237197,15.63954 28.4364331,7.6930858 21.4618598,-4.26325641e-14 Z" id="路径-2"></path>
            <path d="M21.5,99 L21.5,133" id="直线-6" stroke-linecap="square"></path>
        </g>
    </g>
</svg>