<?xml version="1.0" encoding="UTF-8"?>
<svg width="124px" height="125px" viewBox="0 0 124 125" version="1.1" xmlns="http://www.w3.org/2000/svg" xmlns:xlink="http://www.w3.org/1999/xlink">
    <!-- Generator: Sketch 57.1 (83088) - https://sketch.com -->
    <title>形状结合备份</title>
    <desc>Created with Sketch.</desc>
    <g id="页面-1" stroke="none" stroke-width="1" fill="none" fill-rule="evenodd">
        <path d="M75.6794582,1 L122,124 L2,124 L48.4627794,1 L56.687,1 L56.687,7.549 L53.5,7.54973822 L53.5,12.9424084 L56.687,12.942 L56.687,18.335 L53.5,18.3350785 L53.5,23.7277487 L56.687,23.727 L56.687,29.12 L53.5,29.1204188 L53.5,34.513089 L56.687,34.513 L56.687,39.905 L53.5,39.9057592 L53.5,45.2984293 L56.687,45.298 L56.687,50.691 L53.5,50.6910995 L53.5,56.0837696 L56.687,56.083 L56.687,61.476 L53.5,61.4764398 L53.5,66.8691099 L56.687,66.869 L56.687,72.261 L53.5,72.2617801 L53.5,77.6544503 L56.687,77.654 L56.687,83.047 L53.5,83.0471204 L53.5,88.4397906 L56.687,88.439 L56.687,93.832 L53.5,93.8324607 L53.5,99.2251309 L56.687,99.225 L56.6875,103 L67.3125,103 L67.312,99.225 L70.5,99.2251309 L70.5,93.8324607 L67.312,93.832 L67.312,88.439 L70.5,88.4397906 L70.5,83.0471204 L67.312,83.047 L67.312,77.654 L70.5,77.6544503 L70.5,72.2617801 L67.312,72.261 L67.312,66.869 L70.5,66.8691099 L70.5,61.4764398 L67.312,61.476 L67.312,56.083 L70.5,56.0837696 L70.5,50.6910995 L67.312,50.691 L67.312,45.298 L70.5,45.2984293 L70.5,39.9057592 L67.312,39.905 L67.312,34.513 L70.5,34.513089 L70.5,29.1204188 L67.312,29.12 L67.312,23.727 L70.5,23.7277487 L70.5,18.3350785 L67.312,18.335 L67.312,12.942 L70.5,12.9424084 L70.5,7.54973822 L67.312,7.549 L67.312,1 L75.6794582,1 Z" id="形状结合备份" stroke="#007AFF" stroke-width="2"></path>
    </g>
</svg>