<?xml version="1.0" encoding="UTF-8"?>
<svg width="288px" height="726px" viewBox="0 0 288 726" version="1.1" xmlns="http://www.w3.org/2000/svg" xmlns:xlink="http://www.w3.org/1999/xlink">
    <!-- Generator: Sketch 57.1 (83088) - https://sketch.com -->
    <title>ship outline备份</title>
    <desc>Created with Sketch.</desc>
    <defs>
        <path d="M141.819155,0 L216.730397,0.000300021411 C228.073262,2.32957984 240.992428,15.7276328 255.487896,40.1944588 C269.983364,64.6612848 278.790429,104.263132 281.909091,159 L140.226543,159 L140.226091,158.999 L-0.0909090909,158.9997 C2.99656593,104.810201 11.659245,65.4545353 25.8971282,40.9327041 L26.3302857,40.1941588 C40.8257539,15.7273327 53.7449203,2.32927981 65.0877847,0 L65.0877847,0 L141.819155,0 Z" id="path-1"></path>
    </defs>
    <g id="页面-1" stroke="none" stroke-width="1" fill="none" fill-rule="evenodd">
        <g id="ship-outline备份" transform="translate(3.000000, 3.000000)">
            <rect id="矩形" stroke="#007AFF" stroke-width="5" fill-opacity="0.5" fill="#000000" x="29.9090909" y="253.272237" width="222" height="308"></rect>
            <rect id="矩形" stroke="#007AFF" stroke-width="3" x="84.9090909" y="338.272237" width="112" height="223"></rect>
            <path d="M29.4090909,253.772237 L84.4090909,338.772237" id="直线" stroke="#007AFF" stroke-width="3" fill-opacity="0.5" fill="#000000" stroke-linecap="square"></path>
            <path d="M251.409091,253.772237 L196.409091,338.772237" id="直线-2" stroke="#007AFF" stroke-width="3" fill-opacity="0.5" fill="#000000" stroke-linecap="square"></path>
            <rect id="矩形" stroke="#007AFF" stroke-width="2" x="130.909091" y="427.272237" width="20" height="46"></rect>
            <rect id="矩形" stroke="#007AFF" stroke-width="2" x="84.9090909" y="272.272237" width="112" height="39"></rect>
            <rect id="矩形" stroke="#007AFF" stroke-width="5" fill-opacity="0.5" fill="#000000" x="43.9090909" y="227.272237" width="194" height="26"></rect>
            <path d="M165.909091,0 L251.409091,227.272237 L29.9090909,227.272237 L115.671638,0 L130.909091,0 L130.909091,9.27223737 L124.909091,9.27223737 L124.909091,19.2722374 L130.909091,19.2722374 L130.909091,29.2722374 L124.909091,29.2722374 L124.909091,39.2722374 L130.909091,39.2722374 L130.909091,49.2722374 L124.909091,49.2722374 L124.909091,59.2722374 L130.909091,59.2722374 L130.909091,69.2722374 L124.909091,69.2722374 L124.909091,79.2722374 L130.909091,79.2722374 L130.909091,89.2722374 L124.909091,89.2722374 L124.909091,99.2722374 L130.909091,99.2722374 L130.909091,109.272237 L124.909091,109.272237 L124.909091,119.272237 L130.909091,119.272237 L130.909091,129.272237 L124.909091,129.272237 L124.909091,139.272237 L130.909091,139.272237 L130.909091,149.272237 L124.909091,149.272237 L124.909091,159.272237 L130.909091,159.272237 L130.909091,169.272237 L124.909091,169.272237 L124.909091,179.272237 L130.909091,179.272237 L130.909091,186.272237 L150.909091,186.272237 L150.909091,179.272237 L156.909091,179.272237 L156.909091,169.272237 L150.909091,169.272237 L150.909091,159.272237 L156.909091,159.272237 L156.909091,149.272237 L150.909091,149.272237 L150.909091,139.272237 L156.909091,139.272237 L156.909091,129.272237 L150.909091,129.272237 L150.909091,119.272237 L156.909091,119.272237 L156.909091,109.272237 L150.909091,109.272237 L150.909091,99.2722374 L156.909091,99.2722374 L156.909091,89.2722374 L150.909091,89.2722374 L150.909091,79.2722374 L156.909091,79.2722374 L156.909091,69.2722374 L150.909091,69.2722374 L150.909091,59.2722374 L156.909091,59.2722374 L156.909091,49.2722374 L150.909091,49.2722374 L150.909091,39.2722374 L156.909091,39.2722374 L156.909091,29.2722374 L150.909091,29.2722374 L150.909091,19.2722374 L156.909091,19.2722374 L156.909091,9.27223737 L150.909091,9.27223737 L150.909091,0 L165.909091,0 Z" id="形状结合" stroke="#007AFF" stroke-width="5" fill-opacity="0.5" fill="#000000"></path>
            <path d="M-0.0909090909,720.272237 C3.02972902,665.535266 11.8423755,625.933344 26.3470303,601.466472 C40.8516851,576.9996 53.779039,563.601522 65.129092,561.272237 L65.129092,561.272237 L141.909091,561.272237 L216.68909,561.272237 C228.039143,563.601522 240.966497,576.9996 255.471152,601.466472 C269.975806,625.933344 278.788453,665.535266 281.909091,720.272237 L140.136751,720.272237 Z" id="形状结合" stroke="#007AFF" stroke-width="5" fill-opacity="0.5" fill="#000000"></path>
            <g id="直线-3备份-6-+-直线-3备份-5-+-直线-3备份-4-+-直线-3备份-+-直线-3-蒙版" transform="translate(0.000000, 561.272237)">
                <mask id="mask-2" fill="white">
                    <use xlink:href="#path-1"></use>
                </mask>
                <g id="蒙版"></g>
                <path d="M-0.635925168,128.5 L281.454107,128.5" id="直线-3备份-6" stroke="#007AFF" stroke-width="2" stroke-linecap="square" mask="url(#mask-2)"></path>
                <path d="M-0.635925168,101.5 L281.454107,101.5" id="直线-3备份-5" stroke="#007AFF" stroke-width="2" stroke-linecap="square" mask="url(#mask-2)"></path>
                <path d="M-0.635925168,74.5 L281.454107,74.5" id="直线-3备份-4" stroke="#007AFF" stroke-width="2" stroke-linecap="square" mask="url(#mask-2)"></path>
                <path d="M-0.635925168,46.5 L281.454107,46.5" id="直线-3备份" stroke="#007AFF" stroke-width="2" stroke-linecap="square" mask="url(#mask-2)"></path>
                <path d="M-0.635925168,19.5 L281.454107,19.5" id="直线-3" stroke="#007AFF" stroke-width="2" stroke-linecap="square" mask="url(#mask-2)"></path>
            </g>
        </g>
    </g>
</svg>